<?xml version="1.0" encoding="UTF-8"?>
<svg version="1.1" xmlns="http://www.w3.org/2000/svg" width="208" height="45">
<path d="M0 0 C5.44296262 3.24283788 10.0567259 8.16548467 12.4140625 14.08984375 C13.24369895 21.92315535 13.50139964 29.69348418 8.4140625 36.08984375 C4.04706844 40.70519766 -0.18211047 43.71503053 -6.63671875 44.42578125 C-14.59903886 44.52113838 -20.44982994 44.07790272 -26.33203125 38.40625 C-32.22075431 31.83968831 -33.21540123 26.61740642 -32.96484375 17.80078125 C-32.29140294 11.20522695 -29.35856672 7.49633222 -24.5234375 3.21484375 C-17.4405917 -1.90891704 -8.36285441 -2.94342157 0 0 Z " fill="#850AF6" transform="translate(32.5859375,0.91015625)"/>
<path d="M0 0 C2.64 0 5.28 0 8 0 C8.83819158 1.62249941 9.6704116 3.24808497 10.5 4.875 C10.9640625 5.77992187 11.428125 6.68484375 11.90625 7.6171875 C13 10 13 10 13 12 C13.66 12 14.32 12 15 12 C15.2475 11.319375 15.495 10.63875 15.75 9.9375 C17.21690363 6.49027648 19.1412887 3.25274477 21 0 C31.89 0 42.78 0 54 0 C54 1.98 54 3.96 54 6 C50.7 6 47.4 6 44 6 C44 13.92 44 21.84 44 30 C42.02 30 40.04 30 38 30 C38 22.08 38 14.16 38 6 C34.7 6 31.4 6 28 6 C27.67 5.34 27.34 4.68 27 4 C21.4116967 12.60522331 17.68913395 19.39169599 18 30 C15.69 30 13.38 30 11 30 C11.04382813 29.41476563 11.08765625 28.82953125 11.1328125 28.2265625 C11.10305177 18.31623807 5.89412687 10.8050992 0.90209961 2.59130859 C0 1 0 1 0 0 Z " fill="#8D2AF1" transform="translate(110,8)"/>
<path d="M0 0 C3.2175 -0.103125 6.435 -0.20625 9.75 -0.3125 C11.26158691 -0.38078003 11.26158691 -0.38078003 12.80371094 -0.45043945 C19.35126928 -0.55237512 19.35126928 -0.55237512 22.65625 2.26171875 C24.03417748 5.06964655 24.38411927 6.13054787 23.75 9.125 C22.61930377 14.39980954 22.61930377 14.39980954 25 19 C25.4375 22.4375 25.4375 22.4375 25 26 C22.81691203 28.5590139 21.08900259 29.84937965 17.71411133 30.31616211 C15.02447712 30.39386775 12.37698744 30.3480757 9.6875 30.25 C6.490625 30.1675 3.29375 30.085 0 30 C0 20.1 0 10.2 0 0 Z M7 6 C7 7.98 7 9.96 7 12 C9.97 12 12.94 12 16 12 C16.38218767 10.34385343 16.71395102 8.67542976 17 7 C15.99163938 5.76732652 15.99163938 5.76732652 13.93359375 5.90234375 C12.69802734 5.91974609 12.69802734 5.91974609 11.4375 5.9375 C10.19806641 5.95103516 10.19806641 5.95103516 8.93359375 5.96484375 C7.97646484 5.98224609 7.97646484 5.98224609 7 6 Z M7 18 C7 20.31 7 22.62 7 25 C8.8871875 25.061875 8.8871875 25.061875 10.8125 25.125 C11.52019531 25.14820313 12.22789063 25.17140625 12.95703125 25.1953125 C15.31359719 25.13254462 15.31359719 25.13254462 18 23 C17.67 21.35 17.34 19.7 17 18 C13.7 18 10.4 18 7 18 Z " fill="#7C23E7" transform="translate(53,8)"/>
<path d="M0 0 C4.46560729 2.15306066 7.06687518 4.42154648 9 9 C10.21081575 13.89958 10.39821736 17.63817023 8.375 22.3125 C7.92125 23.529375 7.4675 24.74625 7 26 C8.13568743 28.52052665 8.13568743 28.52052665 10 30 C8.700625 29.979375 7.40125 29.95875 6.0625 29.9375 C2.74521329 29.91666931 -0.35159133 30.16916334 -3.625 30.6875 C-8.1823066 31.21945042 -11.0222698 30.44783397 -15 28 C-18.15312973 25.19012236 -19.74371457 22.52872013 -20.4453125 18.34375 C-20.70421052 12.06115803 -19.84537361 7.98859279 -16 3 C-11.5891859 -1.14349204 -5.70217277 -0.75359112 0 0 Z M-11.4375 8 C-13.43380922 11.8329137 -13.85605534 14.76252605 -13 19 C-11.2284556 21.97366382 -10.04614215 23.5384667 -6.875 24.9375 C-6.25625 24.958125 -5.6375 24.97875 -5 25 C-4.34 24.34 -3.68 23.68 -3 23 C-3.99 21.35 -4.98 19.7 -6 18 C-3.36 18.66 -0.72 19.32 2 20 C3.11172134 14.98431857 3.11172134 14.98431857 1.6875 10.1875 C-1.02203145 6.56519385 -1.02203145 6.56519385 -5.375 5.5625 C-9.05125952 5.67695154 -9.05125952 5.67695154 -11.4375 8 Z " fill="#9A2FF8" transform="translate(197,8)"/>
<path d="M0 0 C6.92597152 0.55407772 11.22771853 2.77689713 15.75 8 C20.82136043 14.7618139 20.738681 20.65944992 20 29 C18.34250569 35.31237355 14.26739042 39.36071208 9 43 C4.68545287 45.4338471 0.84073926 45.16409286 -4 45 C-4.125 39.25 -4.125 39.25 -3 37 C-0.49487377 36.43432634 2.01089785 36.10637843 4.5546875 35.7578125 C7.60241106 34.81331031 8.47169844 33.76211312 10 31 C10.08892339 27.86637282 10.08892339 27.86637282 9 25 C7.04836882 23.56362302 7.04836882 23.56362302 5 23 C5 22.34 5 21.68 5 21 C5.804375 20.5875 6.60875 20.175 7.4375 19.75 C10.28942568 18.19348134 10.28942568 18.19348134 10.9375 14.9375 C10.9684375 13.4834375 10.9684375 13.4834375 11 12 C8.60236815 9.60236815 7.66726502 9.65719414 4.375 9.375 C3.55773437 9.30023438 2.74046875 9.22546875 1.8984375 9.1484375 C1.27195312 9.09945313 0.64546875 9.05046875 0 9 C-0.33 9.99 -0.66 10.98 -1 12 C-0.67 8.04 -0.34 4.08 0 0 Z " fill="#840AF5" transform="translate(25,0)"/>
<path d="M0 0 C2.31 0 4.62 0 7 0 C7.01981934 0.55461914 7.03963867 1.10923828 7.06005859 1.68066406 C7.15557651 4.20423693 7.26514567 6.72701224 7.375 9.25 C7.4059375 10.12269531 7.436875 10.99539062 7.46875 11.89453125 C7.50742188 12.73886719 7.54609375 13.58320313 7.5859375 14.453125 C7.6173584 15.22817383 7.6487793 16.00322266 7.68115234 16.80175781 C8.03536592 19.24382443 8.70824362 20.90429143 10 23 C11.8522367 24.00478037 11.8522367 24.00478037 14 24 C16.66606019 23.00974907 17.71389765 22.5722047 19 20 C19.15123831 18.4804236 19.24881693 16.95527498 19.31640625 15.4296875 C19.35830078 14.53378906 19.40019531 13.63789063 19.44335938 12.71484375 C19.48267578 11.77769531 19.52199219 10.84054688 19.5625 9.875 C19.60568359 8.93011719 19.64886719 7.98523438 19.69335938 7.01171875 C19.79959072 4.67462908 19.90163176 2.3374317 20 0 C22.31 0 24.62 0 27 0 C27.08767555 3.37483413 27.14061628 6.74937215 27.1875 10.125 C27.21263672 11.07632812 27.23777344 12.02765625 27.26367188 13.0078125 C27.32973126 19.34951358 26.77882579 23.90054046 22.375 28.8125 C17.34377373 31.32811313 12.58477133 31.38969787 7.1875 30.0625 C3.02566705 27.36954927 1.56372417 24.65281068 0 20 C-0.44286387 16.47649196 -0.38391874 13.04369599 -0.25 9.5 C-0.23195313 8.5821875 -0.21390625 7.664375 -0.1953125 6.71875 C-0.14863102 4.47803908 -0.08318522 2.23960201 0 0 Z " fill="#8425EB" transform="translate(81,8)"/>
<path d="M0 0 C2.31 0 4.62 0 7 0 C7 9.9 7 19.8 7 30 C4.69 30 2.38 30 0 30 C0 20.1 0 10.2 0 0 Z " fill="#9130F6" transform="translate(166,8)"/>
<path d="M0 0 C3 2 3 2 3.9375 4.8125 C4 8 4 8 2.1875 10.8125 C-0.94714588 13.94714588 -0.94714588 13.94714588 -3.9453125 14.09765625 C-5.96354167 14.06510417 -7.98177083 14.03255208 -10 14 C-10.33 16.64 -10.66 19.28 -11 22 C-11.66 22 -12.32 22 -13 22 C-11.20023445 6.73375339 -11.20023445 6.73375339 -8 1 C-5.22899606 -0.38550197 -3.0665294 -0.1877467 0 0 Z " fill="#FBF7FE" transform="translate(32,23)"/>
<path d="M0 0 C2.31 0 4.62 0 7 0 C9 2 9 2 9.23046875 4.05859375 C9.20919922 5.23615234 9.20919922 5.23615234 9.1875 6.4375 C9.17783203 7.61119141 9.17783203 7.61119141 9.16796875 8.80859375 C9 11 9 11 8 14 C4.7 14 1.4 14 -2 14 C-1.34 9.38 -0.68 4.76 0 0 Z " fill="#FBF7FE" transform="translate(11,23)"/>
<path d="M0 0 C1.43655854 -0.08131463 2.8744483 -0.13933559 4.3125 -0.1875 C5.51326172 -0.23970703 5.51326172 -0.23970703 6.73828125 -0.29296875 C9 0 9 0 10.80078125 1.32421875 C12 3 12 3 11.875 6 C10.59473684 10.38947368 10.59473684 10.38947368 8 12 C5 12.4375 5 12.4375 2 12 C0.0625 10.5 0.0625 10.5 -1 8 C-0.93655039 5.22936682 -0.50312001 2.74429095 0 0 Z " fill="#FDFCFF" transform="translate(25,9)"/>
<path d="M0 0 C0.33 0 0.66 0 1 0 C0.25 15.75 0.25 15.75 -5 21 C-8.625 21.125 -8.625 21.125 -12 21 C-11.85831863 19.56208484 -11.71148957 18.1246763 -11.5625 16.6875 C-11.48128906 15.88699219 -11.40007813 15.08648437 -11.31640625 14.26171875 C-11 12 -11 12 -10 9 C-7.03 9 -4.06 9 -1 9 C-0.67 6.03 -0.34 3.06 0 0 Z " fill="#FCF9FE" transform="translate(24,0)"/>
<path d="M0 0 C0.66 0 1.32 0 2 0 C2.12375 1.670625 2.12375 1.670625 2.25 3.375 C2.57873787 7.05753944 2.57873787 7.05753944 5.0625 8.4375 C5.701875 8.623125 6.34125 8.80875 7 9 C7 9.66 7 10.32 7 11 C6.05125 11.20625 5.1025 11.4125 4.125 11.625 C0.70833333 12.70833333 0.70833333 12.70833333 -0.375 16.125 C-0.58125 17.07375 -0.7875 18.0225 -1 19 C-3 18 -3 18 -4.125 14.9375 C-4.41375 13.968125 -4.7025 12.99875 -5 12 C-7.97 11.505 -7.97 11.505 -11 11 C-10.443125 10.731875 -9.88625 10.46375 -9.3125 10.1875 C-8.549375 9.795625 -7.78625 9.40375 -7 9 C-5.700625 8.38125 -5.700625 8.38125 -4.375 7.75 C-1.34791945 5.5195196 -0.87652316 3.58577656 0 0 Z " fill="#8B16F8" transform="translate(23,12)"/>
</svg>
